<?xml version="1.0" encoding="utf-8"?>
<!-- Generator: Adobe Illustrator 25.2.1, SVG Export Plug-In . SVG Version: 6.00 Build 0)  -->
<svg version="1.1" id="Layer_2_1_" xmlns="http://www.w3.org/2000/svg" xmlns:xlink="http://www.w3.org/1999/xlink" x="0px" y="0px"
	 viewBox="0 0 482.4 126.1" style="enable-background:new 0 0 482.4 126.1;" xml:space="preserve">
<style type="text/css">
	.st0{fill:#353785;}
	.st1{fill:#C71533;}
</style>
<g>
	<path class="st0" d="M265.1,12.2h5.9v25.1h-5.9V25.7h-10.6v11.6h-5.9V12.2h5.9V23h10.6V12.2z M324.4,30.5l-11.6-18.3h-6.1v25.1h2.9
		V17.5l12.5,19.8h5.2V12.2h-2.9V30.5z M302.4,24.8c0,7.6-5.6,13-13.7,13c-8.1,0-13.7-5.3-13.7-13c0-7.6,5.6-13,13.7-13
		C296.8,11.8,302.4,17.1,302.4,24.8z M288.7,14.1c-4.7,0-7.5,4-7.5,10.7c0,6.7,2.8,10.7,7.5,10.7c4.7,0,7.5-4,7.5-10.7
		C296.2,18.1,293.4,14.1,288.7,14.1z M394.2,12.2h-3.6l-11.9,12.1V12.2h-5.9v25.1h5.9V26.4l9.5,10.9h7.5l-12.3-14L394.2,12.2z
		 M471.3,25.2v8.3c-0.8,1.2-3.2,1.8-5.2,1.8c-5.2,0-8.4-3.9-8.4-10.6c0-6.5,3.3-10.6,8.5-10.6c4.5,0,7.2,2.2,8.5,7l0.1,0.3h1.1V14
		l-0.2-0.1c-2.5-1.4-5.8-2.1-9.4-2.1c-4.7,0-8.6,1.4-11.2,4c-2.3,2.3-3.5,5.5-3.5,9c0,6.3,3.8,13,14.5,13c4.3,0,8.5-1.3,10.7-3.4
		l0.1-0.1v-9H471.3z M444.4,30.5l-11.6-18.3h-6.1v25.1h2.9V17.5l12.5,19.8h5.2V12.2h-2.9V30.5z M422.5,24.8c0,7.6-5.6,13-13.7,13
		c-8.1,0-13.7-5.3-13.7-13c0-7.6,5.6-13,13.7-13C416.8,11.8,422.5,17.1,422.5,24.8z M408.8,14.1c-4.7,0-7.5,4-7.5,10.7
		c0,6.7,2.8,10.7,7.5,10.7c4.7,0,7.5-4,7.5-10.7C416.3,18.1,413.5,14.1,408.8,14.1z M350.8,33.6c-0.8,1.2-3.2,1.8-5.2,1.8
		c-5.2,0-8.4-3.9-8.4-10.6c0-6.5,3.3-10.6,8.5-10.6c4.5,0,7.2,2.2,8.5,7l0.1,0.3h1.1V14l-0.2-0.1c-2.5-1.4-5.8-2.1-9.4-2.1
		c-4.7,0-8.6,1.4-11.2,4c-2.3,2.3-3.5,5.5-3.5,9c0,6.3,3.8,13,14.5,13c4.3,0,8.5-1.3,10.7-3.4l0.1-0.1v-9h-5.6V33.6z"/>
	<path class="st1" d="M418.4,90.7c-1.7,0.1-4.3-0.4-6.6-3.7c-2.8-4.4-7.7-14.1-9.7-19.6c-0.1-0.1-1.1-2.5-1.3,1.1l-3.2,19.7
		c-0.3,1.5-2.2,3.7-4,3.4c-1.8-0.4-3.3-1.3-3.2-5.8c-0.7-12.6,2.8-28.6,6.4-34.1c1.1-1.3,4.1-3,6.2-0.4c3.5,2.9,13.1,23.3,15.8,27.6
		c2.1,4,2.7,0.8,2.7,0.2c2.1-13.4-4-23.8-4.6-29c-0.2-1.5,0.6-3.6,2.9-2.6C434.5,56,433.7,89,418.4,90.7z M338.9,78.3
		c-1.6-0.3-11.9-0.2-18.6,3c3-7.5,9.4-24.4,4-30.9c-2.2-2.7-10.5-4.1-11.4-1.1c2.9,5.4,4.2,20.9,0.5,34c0,0-7.7,4.8-3.3,8.5
		c1,1,3.6,1.1,6.7-1.5c10.6-3.8,25.5-0.1,26-0.5C345.1,87.8,343.3,79,338.9,78.3z M130.6,39.3c-0.7,1-1.3,1.9-1.6,2.2
		c-3.4,3.9-5.8-1.4-3.8-5.5c-9.8-11.2,3.1-26.9,19.5-26.7c6,0.1,9.1,1.3,9,5.2c22,2,8.4,26.2-13.7,26.6
		C136.6,41.1,134.1,40.6,130.6,39.3z M144.1,16.2c-11.9-0.9-18.5,11.5-15.8,14C130.5,26.7,136.6,18.3,144.1,16.2z M152.8,18.9
		c-7.6,0.2-15.4,8.9-18.9,14.6C146.5,38.9,166.8,20.9,152.8,18.9z M107.5,89.8c-13.9,8-32.5,8.6-48.3,3.7c0,12.1-12.3,7.6-11.1-4.2
		V89C22.3,76.6,13.1,65.2,21.1,57.4c4.7-4.7,15.2-7.9,26.9-9.4c0.6-20.8,3.4-23.3,6.9-21c1.8,1.6,4.7,5.2,4,20.2
		c12-0.3,24.4,1.5,31,5.6c13.7,7.8,5.5,21.1-7.9,17.3c-0.9-0.6-0.2-1.2-0.2-1.2c6.7-3,7.2-5.6,3.6-7.5c-5.1-2.3-15.5-3.7-26.4-4.1
		v0.4c0.1,9.4,0.1,19.9,0.1,27.5c5.4,2.4,21.2,3.6,32.3,1.3c38.7-8,15.9-46-4-58.1C66.8,15,37.6,2.2,7.8,7.8C5.5,8,5,9.8,7.7,10
		c3.6,0.2,4.7,4-1.6,3.5C-7.1,11.6,2.5,0.3,21.7,0C101.7-1.2,154.2,63.5,107.5,89.8z M48,57.3c-8.1,0.2-15.6,1.1-20,2.7
		c-1.1,0.4-2,0.8-2.7,1.2C16.6,67,41.6,78.7,47.8,81.6c0,0-0.1-15.6,0.1-23.7L48,57.3z M438.7,48.1c-7.8,2.6-8.4,7.8-3.4,8.7
		c1.5-0.1,1.5-1.1,1-2.3c-0.4-1.2,0.7-2,2.8-2.1c23-1.3,40.9,19.9,34.9,26.7c-4.5,5.1-15.4,4.3-24.1,1.8c0.3-7.9,0.6-14.4-0.3-20.5
		c-1.7-4-7-0.4-8.1,8.9c-0.3,2.4-0.6,4.8-0.8,7c-1.7-0.4-3.1-5.6-5.3-1.6c-0.3,0.6-3.8,8.2,5,12.2c0.1,4.8,7.1,6.2,8.9,3.2
		c9.7,2.8,21-2.2,24.2-4.7C499.3,65.4,463.3,42.5,438.7,48.1z M384.4,85.3c-5.1,7.1-9.6,6.7-9.9,4.2c0.6-4.3,0.6-8.9,0.2-13.4
		c-5.8,1.2-11,1.5-15.4,1.3c-0.7,7.3-1.3,13.4-3,14c-3.8,1.1-7.9-4-8.1-7.2c0-0.2,0.2-3.5,1.1-8.2c-5-1.2-7.9-2.8-8.3-3.1
		c-2.6-2.2-2.6-11.4,0.3-12.4c0.8,0.7,3.9,4.1,10.1,6.8c1.7-5.8,4.4-11.5,8.3-16.1c5.9-5.4,9.2-3.8,10.6-3.7
		C378,49.4,388.2,74.4,384.4,85.3z M374,70.4c-1.7-10.1-5.1-17.5-7.5-17.2c-3.9,0.5-5.4,8.1-6.4,16.7C364,70.6,368.6,70.8,374,70.4z
		 M304.4,77.9c-1.7,3-7.9,11.7-21.9,13.6c-1,3.3-1.8,6.5-2.5,9.7c-1.4,6.5-2.2,12.4-2.7,17c-0.3,3.4-0.4,5.9-0.2,7.1
		c-1.5,2.8-8-0.8-9.7-3.8c-1.7-3,0.2-17.6,4.9-32.4c-17.9-13.6,3.5-36.7,7.6-39.6c3.1-3.1,7.9-1.4,1.3,7.6
		c-1.5,2-11.6,13.8-5.2,21.8c7.5-17.2,17.6-24.7,22.5-26.8C309.3,48.2,312.3,63.6,304.4,77.9z M302.2,58.8
		c-7.7,3.4-15.5,20.5-16.6,23.3C303.7,79.8,307.7,56.9,302.2,58.8z M258.7,77.6c-3.2-1-14.2,3.3-17.3,3.5c0,0-2.4,0.1-1.9-2
		c0.9-2.3,2.1-5.9,3.2-8.6c1.5-0.1,11.4-0.1,15-0.9c1.3,0,3.3-5.5,0.7-6c-2-0.5-11.2-0.3-13-0.3c0.8-2.1,2-5.3,2.4-6.4
		c4.9-0.5,21,1.9,19.6-3.1c-1.1-2.4-1.5-4.2-5-5.7c-2.5-1-14.3,0.9-27.8,1.2c-4.2,0.2-0.9,4.5,0.6,5.2c0.8,0.4,2.9,1.1,4.6,1.4
		c-0.9,2.4-2.4,5.9-3.1,7.4c-6.7-0.7-4.2,6.4-2.7,6.9c-0.5,1.2-5.6,8.7-2.8,15.5c3.8,9.2,11.4,6.7,27.5-1.1
		C261.1,83.5,262.1,79,258.7,77.6z M137.7,49.2c-1.7-1.3-3.5-0.5-4.4,2.5c-2.4,11.6-2.5,24.6-1.5,37c0,1.4,2.2,2.6,4.4,2.7
		c2.2,0.1,4.5-1.2,4.5-4c0.3-3.2,0.2-20.8,0-28.9C140.6,54.3,139.3,50.7,137.7,49.2z M182.5,66.6c-10.5-4.6-23.8-4.6-29.1-5.9
		c-2.3-0.7-0.9-2.1,0.2-2.3c7-2.7,21.7-2,28.7-1c3,0.3,5.6-5.5-1.9-7.2c-39.4-9.2-39,15.7-28.7,17.3c1.1,0.3,24.9,2.5,27.8,7
		c4.6,8.8-14.4,12-26.1,7.7c-2.3-0.9-5.2-3.1-4.5-5.1c0.7-2.2,2.9-1.8,4.2-1.5c0.9,0.1,7.4,3,9.4,3.6c4,1.2,8.2,1.3,11.6-1.4
		c1-1.1,0.9-2.4-0.7-3.2c-1.5-0.8-11.4-3.5-14.9-3.8c-14-2.5-14.9,9.6-11,13.4c10.1,11.9,29.3,7.3,33.9,4c2.4-1.3,4.9-5.9,5.4-9.4
		C187.7,74.4,187.2,69.3,182.5,66.6z M216.2,44.2c-2.1-1.3-2.5,1.4-2.3,2.9c0.7,5,5.5,13.8,3.8,29.5c0,0.3-0.2,3.4-2.1,0.4
		c-2.7-4-8.8-20.8-13.2-24.2c-2.6-2.1-4.4-0.3-5.3,1c-3.3,5.3-6.5,20.5-6.2,32.4c0.1,5.3,6.1,7,6.9,2.1l2.5-21.2
		c0.4-1.9,1.2-1.2,1.3-1.1c2.6,1.6,6.5,25.4,16.3,24.4C230.5,87.9,229.6,53.1,216.2,44.2z"/>
</g>
</svg>
